{
    "asset" : {
        "generator" : "Khronos glTF Blender I/O v3.4.50",
        "version" : "2.0"
    },
    "extensionsUsed" : [
        "KHR_materials_variants"
    ],
    "extensionsRequired" : [
        "KHR_materials_variants"
    ],
    "extensions" : {
        "KHR_materials_variants" : {
            "variants" : [
                {
                    "name" : "Green"
                },
                {
                    "name" : "Blue"
                },
                {
                    "name" : "Mint"
                },
                {
                    "name" : "Red"
                }
            ]
        }
    },
    "scene" : 0,
    "scenes" : [
        {
            "name" : "Scene",
            "nodes" : [
                0,
                1
            ]
        }
    ],
    "nodes" : [
        {
            "mesh" : 0,
            "name" : "Frame",
            "rotation" : [
                0.70710688829422,
                0,
                0,
                0.7071066498756409
            ],
            "scale" : [
                0.009999999776482582,
                0.009999999776482582,
                0.009999999776482582
            ],
            "translation" : [
                -0.0007389041711576283,
                0.00015156379959080368,
                0.00028740830020979047
            ]
        },
        {
            "mesh" : 1,
            "name" : "Pads",
            "rotation" : [
                0.70710688829422,
                0,
                0,
                0.7071066498756409
            ],
            "scale" : [
                0.009999999776482582,
                0.009999999776482582,
                0.009999999776482582
            ],
            "translation" : [
                -0.0007389041711576283,
                0.00015156379959080368,
                0.00028740830020979047
            ]
        }
    ],
    "materials" : [
        {
            "doubleSided" : true,
            "name" : "Glasses_3_green_ntp",
            "pbrMetallicRoughness" : {
                "baseColorTexture" : {
                    "index" : 0
                },
                "metallicRoughnessTexture" : {
                    "index" : 1
                }
            }
        },
        {
            "doubleSided" : true,
            "name" : "Glasses_3_blue_ntp",
            "pbrMetallicRoughness" : {
                "baseColorTexture" : {
                    "index" : 2
                },
                "metallicRoughnessTexture" : {
                    "index" : 3
                }
            }
        },
        {
            "doubleSided" : true,
            "name" : "Glasses_3_mint_ntp",
            "pbrMetallicRoughness" : {
                "baseColorTexture" : {
                    "index" : 4
                },
                "metallicRoughnessTexture" : {
                    "index" : 5
                }
            }
        },
        {
            "doubleSided" : true,
            "name" : "Glasses_3_red_ntp",
            "pbrMetallicRoughness" : {
                "baseColorTexture" : {
                    "index" : 6
                },
                "metallicRoughnessTexture" : {
                    "index" : 7
                }
            }
        },
        {
            "alphaMode" : "BLEND",
            "doubleSided" : true,
            "name" : "Glasses_3_green_tp",
            "pbrMetallicRoughness" : {
                "baseColorTexture" : {
                    "index" : 8
                },
                "metallicRoughnessTexture" : {
                    "index" : 9
                }
            }
        },
        {
            "alphaMode" : "BLEND",
            "doubleSided" : true,
            "name" : "Glasses_3_blue_tp",
            "pbrMetallicRoughness" : {
                "baseColorTexture" : {
                    "index" : 10
                },
                "metallicRoughnessTexture" : {
                    "index" : 11
                }
            }
        },
        {
            "alphaMode" : "BLEND",
            "doubleSided" : true,
            "name" : "Glasses_3_mint_tp",
            "pbrMetallicRoughness" : {
                "baseColorTexture" : {
                    "index" : 12
                },
                "metallicRoughnessTexture" : {
                    "index" : 13
                }
            }
        },
        {
            "alphaMode" : "BLEND",
            "doubleSided" : true,
            "name" : "Glasses_3_red_tp",
            "pbrMetallicRoughness" : {
                "baseColorTexture" : {
                    "index" : 14
                },
                "metallicRoughnessTexture" : {
                    "index" : 15
                }
            }
        }
    ],
    "meshes" : [
        {
            "name" : "Mesh.016",
            "primitives" : [
                {
                    "attributes" : {
                        "POSITION" : 0,
                        "TEXCOORD_0" : 1,
                        "NORMAL" : 2
                    },
                    "extensions" : {
                        "KHR_materials_variants" : {
                            "mappings" : [
                                {
                                    "material" : 0,
                                    "variants" : [
                                        0
                                    ]
                                },
                                {
                                    "material" : 1,
                                    "variants" : [
                                        1
                                    ]
                                },
                                {
                                    "material" : 2,
                                    "variants" : [
                                        2
                                    ]
                                },
                                {
                                    "material" : 3,
                                    "variants" : [
                                        3
                                    ]
                                }
                            ]
                        }
                    },
                    "indices" : 3,
                    "material" : 3
                }
            ]
        },
        {
            "name" : "Mesh.015",
            "primitives" : [
                {
                    "attributes" : {
                        "POSITION" : 4,
                        "TEXCOORD_0" : 5,
                        "NORMAL" : 6
                    },
                    "extensions" : {
                        "KHR_materials_variants" : {
                            "mappings" : [
                                {
                                    "material" : 4,
                                    "variants" : [
                                        0
                                    ]
                                },
                                {
                                    "material" : 5,
                                    "variants" : [
                                        1
                                    ]
                                },
                                {
                                    "material" : 6,
                                    "variants" : [
                                        2
                                    ]
                                },
                                {
                                    "material" : 7,
                                    "variants" : [
                                        3
                                    ]
                                }
                            ]
                        }
                    },
                    "indices" : 7,
                    "material" : 7
                }
            ]
        }
    ],
    "textures" : [
        {
            "sampler" : 0,
            "source" : 0
        },
        {
            "sampler" : 0,
            "source" : 1
        },
        {
            "sampler" : 0,
            "source" : 2
        },
        {
            "sampler" : 0,
            "source" : 1
        },
        {
            "sampler" : 0,
            "source" : 3
        },
        {
            "sampler" : 0,
            "source" : 1
        },
        {
            "sampler" : 0,
            "source" : 4
        },
        {
            "sampler" : 0,
            "source" : 1
        },
        {
            "sampler" : 0,
            "source" : 0
        },
        {
            "sampler" : 0,
            "source" : 1
        },
        {
            "sampler" : 0,
            "source" : 2
        },
        {
            "sampler" : 0,
            "source" : 1
        },
        {
            "sampler" : 0,
            "source" : 3
        },
        {
            "sampler" : 0,
            "source" : 1
        },
        {
            "sampler" : 0,
            "source" : 4
        },
        {
            "sampler" : 0,
            "source" : 1
        }
    ],
    "images" : [
        {
            "bufferView" : 3,
            "mimeType" : "image/png",
            "name" : "Glasses_3_green_texture"
        },
        {
            "bufferView" : 4,
            "mimeType" : "image/png",
            "name" : "Glasses_3_ORM"
        },
        {
            "bufferView" : 5,
            "mimeType" : "image/png",
            "name" : "Glasses_3_blue_texture"
        },
        {
            "bufferView" : 6,
            "mimeType" : "image/png",
            "name" : "Glasses_3_mint_texture"
        },
        {
            "bufferView" : 7,
            "mimeType" : "image/png",
            "name" : "Glasses_3_red_texture"
        }
    ],
    "accessors" : [
        {
            "bufferView" : 0,
            "componentType" : 5126,
            "count" : 5715,
            "max" : [
                6.919419288635254,
                0.033806439489126205,
                2.176407814025879
            ],
            "min" : [
                -6.919419288635254,
                -10.951120376586914,
                -2.2925925254821777
            ],
            "type" : "VEC3"
        },
        {
            "bufferView" : 1,
            "componentType" : 5126,
            "count" : 5715,
            "type" : "VEC2"
        },
        {
            "bufferView" : 2,
            "componentType" : 5126,
            "count" : 5715,
            "type" : "VEC3"
        },
        {
            "bufferView" : 8,
            "componentType" : 5123,
            "count" : 27444,
            "type" : "SCALAR"
        },
        {
            "bufferView" : 9,
            "componentType" : 5126,
            "count" : 3528,
            "max" : [
                6.823705196380615,
                0.050107698887586594,
                2.109863758087158
            ],
            "min" : [
                -6.823705196380615,
                -0.948535144329071,
                -2.2050936222076416
            ],
            "type" : "VEC3"
        },
        {
            "bufferView" : 10,
            "componentType" : 5126,
            "count" : 3528,
            "type" : "VEC2"
        },
        {
            "bufferView" : 11,
            "componentType" : 5126,
            "count" : 3528,
            "type" : "VEC3"
        },
        {
            "bufferView" : 12,
            "componentType" : 5123,
            "count" : 18792,
            "type" : "SCALAR"
        }
    ],
    "bufferViews" : [
        {
            "buffer" : 0,
            "byteLength" : 68580,
            "byteOffset" : 0,
            "target" : 34962
        },
        {
            "buffer" : 0,
            "byteLength" : 45720,
            "byteOffset" : 68580,
            "target" : 34962
        },
        {
            "buffer" : 0,
            "byteLength" : 68580,
            "byteOffset" : 114300,
            "target" : 34962
        },
        {
            "buffer" : 0,
            "byteLength" : 37917,
            "byteOffset" : 182880
        },
        {
            "buffer" : 0,
            "byteLength" : 418321,
            "byteOffset" : 220800
        },
        {
            "buffer" : 0,
            "byteLength" : 39180,
            "byteOffset" : 639124
        },
        {
            "buffer" : 0,
            "byteLength" : 36233,
            "byteOffset" : 678304
        },
        {
            "buffer" : 0,
            "byteLength" : 37110,
            "byteOffset" : 714540
        },
        {
            "buffer" : 0,
            "byteLength" : 54888,
            "byteOffset" : 751652,
            "target" : 34963
        },
        {
            "buffer" : 0,
            "byteLength" : 42336,
            "byteOffset" : 806540,
            "target" : 34962
        },
        {
            "buffer" : 0,
            "byteLength" : 28224,
            "byteOffset" : 848876,
            "target" : 34962
        },
        {
            "buffer" : 0,
            "byteLength" : 42336,
            "byteOffset" : 877100,
            "target" : 34962
        },
        {
            "buffer" : 0,
            "byteLength" : 37584,
            "byteOffset" : 919436,
            "target" : 34963
        }
    ],
    "samplers" : [
        {
            "magFilter" : 9729,
            "minFilter" : 9987
        }
    ],
    "buffers" : [
        {
            "byteLength" : 957020,
            "uri" : "data:application/octet-stream;base64,"
        }
    ]
}
