{
    "asset" : {
        "generator" : "Khronos glTF Blender I/O v1.7.33",
        "version" : "2.0"
    },
    "scene" : 0,
    "scenes" : [
        {
            "name" : "Scene",
            "nodes" : [
                4
            ]
        }
    ],
    "nodes" : [
        {
            "name" : "joint3",
            "rotation" : [
                -2.334874793508135e-10,
                4.656612873077393e-10,
                -2.1854447140867705e-08,
                1
            ],
            "scale" : [
                1,
                0.9999999403953552,
                1
            ],
            "translation" : [
                -3.354028422108968e-06,
                8.518329620361328,
                1.8115047240030435e-09
            ]
        },
        {
            "children" : [
                0
            ],
            "name" : "joint2",
            "rotation" : [
                0.7070967555046082,
                -0.0037771561183035374,
                -0.0037771561183035374,
                0.7070966362953186
            ],
            "scale" : [
                1,
                0.9999999403953552,
                1
            ],
            "translation" : [
                30.94722557067871,
                -1.142371547757648e-05,
                -1.3527464943763334e-06
            ]
        },
        {
            "children" : [
                1
            ],
            "name" : "joint1",
            "rotation" : [
                0.7071068286895752,
                0.7071068286895752,
                -1.2560740513293481e-15,
                3.090862321641907e-08
            ],
            "scale" : [
                0.9999998807907104,
                0.9999997615814209,
                0.9999999403953552
            ],
            "translation" : [
                -7.697489663151034e-18,
                5.494901422764542e-09,
                -1.4901161193847656e-08
            ]
        },
        {
            "mesh" : 0,
            "name" : "PizzaBox",
            "skin" : 0
        },
        {
            "children" : [
                3,
                2
            ],
            "name" : "Armature",
            "rotation" : [
                0,
                0.7071067094802856,
                -0.7071068286895752,
                -1.1520230458472724e-07
            ],
            "scale" : [
                0.009999999776482582,
                0.009999999776482582,
                0.009999999776482582
            ]
        }
    ],
    "animations" : [
        {
            "channels" : [
                {
                    "sampler" : 0,
                    "target" : {
                        "node" : 2,
                        "path" : "translation"
                    }
                },
                {
                    "sampler" : 1,
                    "target" : {
                        "node" : 2,
                        "path" : "rotation"
                    }
                },
                {
                    "sampler" : 2,
                    "target" : {
                        "node" : 2,
                        "path" : "scale"
                    }
                },
                {
                    "sampler" : 3,
                    "target" : {
                        "node" : 1,
                        "path" : "translation"
                    }
                },
                {
                    "sampler" : 4,
                    "target" : {
                        "node" : 1,
                        "path" : "rotation"
                    }
                },
                {
                    "sampler" : 5,
                    "target" : {
                        "node" : 1,
                        "path" : "scale"
                    }
                },
                {
                    "sampler" : 6,
                    "target" : {
                        "node" : 0,
                        "path" : "translation"
                    }
                },
                {
                    "sampler" : 7,
                    "target" : {
                        "node" : 0,
                        "path" : "rotation"
                    }
                },
                {
                    "sampler" : 8,
                    "target" : {
                        "node" : 0,
                        "path" : "scale"
                    }
                }
            ],
            "name" : "Armature|Take 001|BaseLayer",
            "samplers" : [
                {
                    "input" : 7,
                    "interpolation" : "LINEAR",
                    "output" : 8
                },
                {
                    "input" : 7,
                    "interpolation" : "LINEAR",
                    "output" : 9
                },
                {
                    "input" : 7,
                    "interpolation" : "LINEAR",
                    "output" : 10
                },
                {
                    "input" : 7,
                    "interpolation" : "LINEAR",
                    "output" : 11
                },
                {
                    "input" : 12,
                    "interpolation" : "LINEAR",
                    "output" : 13
                },
                {
                    "input" : 7,
                    "interpolation" : "LINEAR",
                    "output" : 14
                },
                {
                    "input" : 7,
                    "interpolation" : "LINEAR",
                    "output" : 15
                },
                {
                    "input" : 12,
                    "interpolation" : "LINEAR",
                    "output" : 16
                },
                {
                    "input" : 7,
                    "interpolation" : "LINEAR",
                    "output" : 17
                }
            ]
        }
    ],
    "materials" : [
        {
            "doubleSided" : true,
            "name" : "PizzaBox",
            "normalTexture" : {
                "index" : 0
            },
            "pbrMetallicRoughness" : {
                "baseColorTexture" : {
                    "index" : 1
                },
                "metallicRoughnessTexture" : {
                    "index" : 2
                }
            }
        }
    ],
    "meshes" : [
        {
            "name" : "Mesh",
            "primitives" : [
                {
                    "attributes" : {
                        "POSITION" : 0,
                        "NORMAL" : 1,
                        "TEXCOORD_0" : 2,
                        "JOINTS_0" : 3,
                        "WEIGHTS_0" : 4
                    },
                    "indices" : 5,
                    "material" : 0
                }
            ]
        }
    ],
    "textures" : [
        {
            "sampler" : 0,
            "source" : 0
        },
        {
            "sampler" : 0,
            "source" : 1
        },
        {
            "sampler" : 0,
            "source" : 2
        }
    ],
    "images" : [
        {
            "bufferView" : 6,
            "mimeType" : "image/png",
            "name" : "lambert3_normal"
        },
        {
            "bufferView" : 7,
            "mimeType" : "image/png",
            "name" : "lambert3_baseColor"
        },
        {
            "bufferView" : 8,
            "mimeType" : "image/png",
            "name" : "lambert3_occlusionRoughnessMetallic"
        }
    ],
    "skins" : [
        {
            "inverseBindMatrices" : 6,
            "joints" : [
                2,
                1,
                0
            ],
            "name" : "Armature"
        }
    ],
    "accessors" : [
        {
            "bufferView" : 0,
            "componentType" : 5126,
            "count" : 3269,
            "max" : [
                0.30681905150413513,
                0.08921347558498383,
                0.31302493810653687
            ],
            "min" : [
                -0.30681923031806946,
                -0.006753734778612852,
                -0.31302502751350403
            ],
            "type" : "VEC3"
        },
        {
            "bufferView" : 1,
            "componentType" : 5126,
            "count" : 3269,
            "type" : "VEC3"
        },
        {
            "bufferView" : 2,
            "componentType" : 5126,
            "count" : 3269,
            "type" : "VEC2"
        },
        {
            "bufferView" : 3,
            "componentType" : 5121,
            "count" : 3269,
            "type" : "VEC4"
        },
        {
            "bufferView" : 4,
            "componentType" : 5126,
            "count" : 3269,
            "type" : "VEC4"
        },
        {
            "bufferView" : 5,
            "componentType" : 5123,
            "count" : 3732,
            "type" : "SCALAR"
        },
        {
            "bufferView" : 9,
            "componentType" : 5126,
            "count" : 3,
            "type" : "MAT4"
        },
        {
            "bufferView" : 10,
            "componentType" : 5126,
            "count" : 2,
            "max" : [
                2.5
            ],
            "min" : [
                0.041666666666666664
            ],
            "type" : "SCALAR"
        },
        {
            "bufferView" : 11,
            "componentType" : 5126,
            "count" : 2,
            "type" : "VEC3"
        },
        {
            "bufferView" : 12,
            "componentType" : 5126,
            "count" : 2,
            "type" : "VEC4"
        },
        {
            "bufferView" : 13,
            "componentType" : 5126,
            "count" : 2,
            "type" : "VEC3"
        },
        {
            "bufferView" : 14,
            "componentType" : 5126,
            "count" : 2,
            "type" : "VEC3"
        },
        {
            "bufferView" : 15,
            "componentType" : 5126,
            "count" : 60,
            "max" : [
                2.5
            ],
            "min" : [
                0.041666666666666664
            ],
            "type" : "SCALAR"
        },
        {
            "bufferView" : 16,
            "componentType" : 5126,
            "count" : 60,
            "type" : "VEC4"
        },
        {
            "bufferView" : 17,
            "componentType" : 5126,
            "count" : 2,
            "type" : "VEC3"
        },
        {
            "bufferView" : 18,
            "componentType" : 5126,
            "count" : 2,
            "type" : "VEC3"
        },
        {
            "bufferView" : 19,
            "componentType" : 5126,
            "count" : 60,
            "type" : "VEC4"
        },
        {
            "bufferView" : 20,
            "componentType" : 5126,
            "count" : 2,
            "type" : "VEC3"
        }
    ],
    "bufferViews" : [
        {
            "buffer" : 0,
            "byteLength" : 39228,
            "byteOffset" : 0
        },
        {
            "buffer" : 0,
            "byteLength" : 39228,
            "byteOffset" : 39228
        },
        {
            "buffer" : 0,
            "byteLength" : 26152,
            "byteOffset" : 78456
        },
        {
            "buffer" : 0,
            "byteLength" : 13076,
            "byteOffset" : 104608
        },
        {
            "buffer" : 0,
            "byteLength" : 52304,
            "byteOffset" : 117684
        },
        {
            "buffer" : 0,
            "byteLength" : 7464,
            "byteOffset" : 169988
        },
        {
            "buffer" : 0,
            "byteLength" : 992317,
            "byteOffset" : 177452
        },
        {
            "buffer" : 0,
            "byteLength" : 1308444,
            "byteOffset" : 1169772
        },
        {
            "buffer" : 0,
            "byteLength" : 331199,
            "byteOffset" : 2478216
        },
        {
            "buffer" : 0,
            "byteLength" : 192,
            "byteOffset" : 2809416
        },
        {
            "buffer" : 0,
            "byteLength" : 8,
            "byteOffset" : 2809608
        },
        {
            "buffer" : 0,
            "byteLength" : 24,
            "byteOffset" : 2809616
        },
        {
            "buffer" : 0,
            "byteLength" : 32,
            "byteOffset" : 2809640
        },
        {
            "buffer" : 0,
            "byteLength" : 24,
            "byteOffset" : 2809672
        },
        {
            "buffer" : 0,
            "byteLength" : 24,
            "byteOffset" : 2809696
        },
        {
            "buffer" : 0,
            "byteLength" : 240,
            "byteOffset" : 2809720
        },
        {
            "buffer" : 0,
            "byteLength" : 960,
            "byteOffset" : 2809960
        },
        {
            "buffer" : 0,
            "byteLength" : 24,
            "byteOffset" : 2810920
        },
        {
            "buffer" : 0,
            "byteLength" : 24,
            "byteOffset" : 2810944
        },
        {
            "buffer" : 0,
            "byteLength" : 960,
            "byteOffset" : 2810968
        },
        {
            "buffer" : 0,
            "byteLength" : 24,
            "byteOffset" : 2811928
        }
    ],
    "samplers" : [
        {
            "magFilter" : 9729,
            "minFilter" : 9987
        }
    ],
    "buffers" : [
        {
            "byteLength" : 2811952,
            "uri" : "data:application/octet-stream;base64,"
        }
    ]
}
